HIERARCHY
ROOT Pelvis
{
	OFFSET 0.000000 0.000000 0.000000
	CHANNELS 6 Xposition Yposition Zposition Xrotation Yrotation Zrotation
	JOINT LeftUpLeg_virtual
	{
		OFFSET 0.000000 0.000000 0.000000
		CHANNELS 3 Xrotation Yrotation Zrotation
		JOINT LeftUpLeg
		{
			OFFSET 18.735201 -5.666702 -4.541200
			CHANNELS 3 Xrotation Yrotation Zrotation
			JOINT LeftLeg
			{
				OFFSET -0.021200 -31.938179 0.493100
				CHANNELS 3 Xrotation Yrotation Zrotation
				JOINT LeftFoot
				{
					OFFSET 0.021200 -31.938179 -4.336299
					CHANNELS 3 Xrotation Yrotation Zrotation
					JOINT LeftToeBase
					{
						OFFSET 0.943001 -26.722000 15.023500
						CHANNELS 3 Xrotation Yrotation Zrotation
						End Site
						{
							OFFSET 0 0 0
						}
					}
				}
			}
		}
	}
	JOINT RightUpLeg_virtual
	{
		OFFSET 0.000000 0.000000 0.000000
		CHANNELS 3 Xrotation Yrotation Zrotation
		JOINT RightUpLeg
		{
			OFFSET -18.735201 -5.666702 -4.541200
			CHANNELS 3 Xrotation Yrotation Zrotation
			JOINT RightLeg
			{
				OFFSET 0.018946 -31.938133 0.493100
				CHANNELS 3 Xrotation Yrotation Zrotation
				JOINT RightFoot
				{
					OFFSET -0.018946 -31.938126 -4.336299
					CHANNELS 3 Xrotation Yrotation Zrotation
					JOINT RightToeBase
					{
						OFFSET -0.943001 -26.722004 15.023500
						CHANNELS 3 Xrotation Yrotation Zrotation
						End Site
						{
							OFFSET 0 0 0
						}
					}
				}
			}
		}
	}
	JOINT Hips_virtual
	{
		OFFSET 0.000000 0.000000 0.000000
		CHANNELS 3 Xrotation Yrotation Zrotation
		JOINT Hips
		{
			OFFSET -0.000000 -0.000000 -0.000000
			CHANNELS 3 Xrotation Yrotation Zrotation
			JOINT Spine
			{
				OFFSET 0.000000 10.199997 -0.299500
				CHANNELS 3 Xrotation Yrotation Zrotation
				JOINT Spine1
				{
					OFFSET 0.000000 11.900002 -1.516600
					CHANNELS 3 Xrotation Yrotation Zrotation
					JOINT Spine2
					{
						OFFSET 0.000000 13.600006 -2.842500
						CHANNELS 3 Xrotation Yrotation Zrotation
						JOINT Neck_virtual
						{
							OFFSET 0.000000 0.000000 0.000000
							CHANNELS 3 Xrotation Yrotation Zrotation
							JOINT Neck
							{
								OFFSET 0.000000 9.624100 -2.890100
								CHANNELS 3 Xrotation Yrotation Zrotation
								JOINT Head
								{
									OFFSET 0.000000 14.068802 -1.351900
									CHANNELS 3 Xrotation Yrotation Zrotation
									End Site
									{
										OFFSET 0 0 0
									}
								}
							}
						}
						JOINT LeftShoulder_virtual
						{
							OFFSET 0.000000 0.000000 0.000000
							CHANNELS 3 Xrotation Yrotation Zrotation
							JOINT LeftShoulder
							{
								OFFSET 15.263000 10.923401 -0.547700
								CHANNELS 3 Xrotation Yrotation Zrotation
								JOINT LeftArm
								{
									OFFSET 25.438599 -2.830597 -13.032500
									CHANNELS 3 Xrotation Yrotation Zrotation
									JOINT LeftForeArm
									{
										OFFSET 29.960503 0.000000 0.000000
										CHANNELS 3 Xrotation Yrotation Zrotation
										JOINT LeftHand
										{
											OFFSET 27.849251 0.000000 0.000000
											CHANNELS 3 Xrotation Yrotation Zrotation
											End Site
											{
												OFFSET 0 0 0
											}
										}
									}
								}
							}
						}
						JOINT RightShoulder_virtual
						{
							OFFSET 0.000000 0.000000 0.000000
							CHANNELS 3 Xrotation Yrotation Zrotation
							JOINT RightShoulder
							{
								OFFSET -15.263000 10.923401 -0.547700
								CHANNELS 3 Xrotation Yrotation Zrotation
								JOINT RightArm
								{
									OFFSET -25.438599 -2.830597 -13.032500
									CHANNELS 3 Xrotation Yrotation Zrotation
									JOINT RightForeArm
									{
										OFFSET -29.960503 0.000000 0.000000
										CHANNELS 3 Xrotation Yrotation Zrotation
										JOINT RightHand
										{
											OFFSET -27.849251 0.000000 0.000000
											CHANNELS 3 Xrotation Yrotation Zrotation
											End Site
											{
												OFFSET 0 0 0
											}
										}
									}
								}
							}
						}
					}
				}
			}
		}
	}
}
MOTION
Frames: 8
Frame Time: 0.03333333
-0.892427 79.540649 1.657940 0.000000 0.000000 0.000000 -1.041966 -15.659484 5.322819 -45.864495 3.032243 22.772619 51.383711 -0.277465 -2.522150 -1.408471 0.494614 -9.150694 0.000000 0.000000 0.000000 2.803979 -9.323894 -6.461844 -27.797415 -5.077035 -22.998948 45.072886 4.146285 3.462268 -10.662617 -1.768085 19.925882 0.000000 0.000000 0.000000 2.869595 -4.674147 0.536767 9.159528 -4.599599 0.441224 10.906571 2.169328 -0.943635 5.095656 1.407605 -0.972158 0.000000 0.000000 0.000000 4.873369 1.079732 -0.490019 0.148342 0.458137 -0.085597 0.000000 0.000000 0.000000 6.252861 0.341364 -0.495139 2.565661 -8.015572 -6.601464 -28.212832 -25.720638 -61.185955 -17.723205 -79.262850 -18.825034 0.000000 0.000000 0.000000 5.917219 1.273633 0.324337 2.110511 8.457887 7.139905 -8.383147 16.371902 43.226966 2.657309 63.384511 -0.530420 0.000000 0.000000 0.000000 
-0.333941 79.303650 1.947874 0.000000 0.000000 0.000000 -1.833252 -14.247996 5.816124 -47.028195 2.947536 23.498745 52.326786 -0.451373 -2.832804 -0.702682 0.439104 -9.803951 0.000000 0.000000 0.000000 3.019132 -8.216204 -7.067425 -27.314633 -4.716531 -23.459656 45.086560 4.650240 4.512770 -11.023366 -1.977632 21.666782 0.000000 0.000000 0.000000 1.751155 -4.399102 -0.016615 11.582642 -3.133033 1.923513 10.188539 2.071224 -1.463766 4.790503 1.591731 -0.957138 0.000000 0.000000 0.000000 4.837044 0.854890 -0.571058 0.141061 0.419685 0.043522 0.000000 0.000000 0.000000 5.843448 0.178488 -0.522713 2.894820 -8.021684 -6.837973 -32.155684 -25.243257 -59.678450 -16.958762 -80.355147 -16.593033 0.000000 0.000000 0.000000 5.779391 1.342950 0.075878 2.532509 7.803146 7.182058 -7.939131 16.632033 41.410570 2.096587 65.529053 -0.491620 0.000000 0.000000 0.000000 
0.349824 79.233093 2.793493 0.000000 0.000000 0.000000 -2.747364 -13.078236 5.746908 -47.817690 2.985386 23.478784 52.027552 -1.165402 -2.975393 -0.779015 -0.184867 -10.612588 0.000000 0.000000 0.000000 3.188796 -8.158710 -7.865607 -26.924951 -4.540513 -24.273833 44.646515 4.134904 5.080010 -11.407793 -2.784653 21.989931 0.000000 0.000000 0.000000 2.532254 -4.702265 0.891605 9.049903 -4.227134 2.745997 10.656881 2.040752 -2.248681 4.180913 1.607043 -0.965435 0.000000 0.000000 0.000000 5.109845 0.930247 -0.529208 0.132659 0.478851 0.089159 0.000000 0.000000 0.000000 6.148209 0.456203 -0.454084 2.944157 -8.996151 -7.246054 -33.716880 -24.312400 -60.387717 -15.779308 -80.472237 -15.164236 0.000000 0.000000 0.000000 5.751141 1.543434 -0.042076 2.921062 7.057214 7.652034 -7.199241 16.281854 41.872065 1.473669 64.662398 -0.380967 0.000000 0.000000 0.000000 
0.174505 79.526108 2.020157 0.000000 0.000000 0.000000 -2.678903 -11.339546 6.218498 -48.139802 3.242898 24.231177 52.804233 -0.965426 -3.186984 0.007118 0.092149 -10.842586 0.000000 0.000000 0.000000 3.677405 -6.449059 -8.104124 -26.261212 -4.113529 -24.339845 44.305357 4.114419 5.415145 -11.730787 -3.029624 22.368156 0.000000 0.000000 0.000000 1.921480 -3.916299 0.214592 10.865630 -3.910692 1.456920 9.843859 1.773638 -1.845330 4.492535 1.867861 -1.372212 0.000000 0.000000 0.000000 5.228981 0.878972 -0.586249 0.063239 0.540063 0.070168 0.000000 0.000000 0.000000 6.936682 0.292748 -0.523590 2.952364 -8.841853 -6.594248 -35.411556 -26.089887 -61.742936 -24.714239 -82.890329 -23.514709 0.000000 0.000000 0.000000 6.367481 1.710647 -0.197238 2.681763 6.697534 8.413089 -6.892864 16.533402 41.208553 2.286404 67.309479 -1.050570 0.000000 0.000000 0.000000 
0.644348 79.594818 1.424143 0.000000 0.000000 0.000000 -1.622450 -13.697290 5.234516 -46.996845 3.417661 23.124227 53.651727 -1.300832 -3.383855 0.769112 -0.191577 -11.424623 0.000000 0.000000 0.000000 4.824895 -4.842562 -8.464104 -24.890108 -3.905950 -24.622917 44.516779 4.361004 5.537731 -11.677616 -2.875360 22.669756 0.000000 0.000000 0.000000 3.443404 -3.267470 -0.000637 9.421075 -5.242138 1.047206 10.465453 2.068947 -2.338793 4.053179 1.808099 -1.221098 0.000000 0.000000 0.000000 5.574204 0.804899 -0.680118 -0.097003 0.550929 0.089560 0.000000 0.000000 0.000000 7.025558 0.196366 -0.428021 2.857657 -8.120952 -6.421098 -35.233708 -26.335403 -60.855080 -28.566872 -83.765959 -27.040444 0.000000 0.000000 0.000000 6.406135 1.785446 -0.122147 2.956049 6.996495 8.284158 -4.790587 15.470735 40.437046 2.385119 68.332969 -0.855678 0.000000 0.000000 0.000000 
1.636871 79.524452 1.674278 0.000000 0.000000 0.000000 -2.911967 -15.604286 4.654019 -48.208209 2.815761 22.426204 53.614321 -1.431017 -3.212595 0.775090 -0.406786 -11.289960 0.000000 0.000000 0.000000 4.629201 -4.412684 -8.619683 -24.965808 -3.695496 -24.650923 44.455061 4.017592 5.759623 -11.584481 -3.268135 22.727641 0.000000 0.000000 0.000000 1.555122 -5.721509 0.629220 9.422060 -1.522819 2.240445 9.971813 1.846007 -2.237825 4.866573 2.105396 -1.269644 0.000000 0.000000 0.000000 5.565448 0.813602 -0.710999 0.227887 0.427672 0.098046 0.000000 0.000000 0.000000 6.677586 0.051328 -0.715813 2.726209 -9.006076 -6.746097 -33.450247 -26.356670 -60.504227 -22.460488 -84.471176 -21.494612 0.000000 0.000000 0.000000 6.714406 1.740353 -0.133843 3.039291 6.116139 8.440706 -4.505688 16.660867 40.629626 4.461623 67.049317 -2.121868 0.000000 0.000000 0.000000 
0.651574 79.592300 2.039665 0.000000 0.000000 0.000000 -2.655427 -16.537046 4.798385 -48.200590 2.604959 22.581995 54.235851 -1.414826 -3.279318 1.187359 -0.345021 -11.411523 0.000000 0.000000 0.000000 4.243623 -4.294558 -8.813323 -25.689258 -3.432628 -24.812047 44.901828 3.899793 5.768943 -11.337270 -3.352382 22.635935 0.000000 0.000000 0.000000 2.396663 -4.864798 0.870385 8.835997 -0.988775 1.690844 10.478119 2.605906 -2.386392 5.618975 1.694895 -1.378594 0.000000 0.000000 0.000000 5.899697 0.775461 -0.699730 0.126053 0.365389 0.057258 0.000000 0.000000 0.000000 6.754649 0.194272 -0.673054 2.751860 -9.196545 -6.640155 -31.896584 -26.754324 -59.427864 -28.270491 -85.192909 -27.267399 0.000000 0.000000 0.000000 6.898550 1.942645 -0.048743 3.063028 5.508165 8.774428 -4.773417 15.821180 40.794596 3.408681 66.785023 -1.084885 0.000000 0.000000 0.000000 
0.643072 79.974258 1.838882 0.000000 0.000000 0.000000 -2.600465 -16.543845 5.160831 -48.203695 2.439070 22.919772 54.761008 -0.973529 -3.056279 1.730575 -0.033325 -10.793791 0.000000 0.000000 0.000000 4.417952 -3.631753 -8.993448 -25.569807 -3.299740 -24.962113 44.364087 3.860140 5.834289 -11.495004 -3.372471 22.678393 0.000000 0.000000 0.000000 2.974255 -5.731907 0.840726 10.299101 0.724841 1.847850 10.140949 2.663235 -2.116822 4.756471 1.800289 -1.577033 0.000000 0.000000 0.000000 6.012451 0.792680 -0.759039 0.083535 0.245680 0.213497 0.000000 0.000000 0.000000 7.099749 -0.051435 -0.795515 2.672720 -8.658434 -6.661757 -31.211933 -25.633015 -58.811726 -35.893115 -86.512153 -34.190848 0.000000 0.000000 0.000000 7.334091 2.028907 -0.264703 2.722437 4.917861 9.538450 -3.958013 14.697169 41.180580 2.648356 67.801908 0.006921 0.000000 0.000000 0.000000 
